<?xml version="1.0" encoding="UTF-8" standalone="no"?>
<!DOCTYPE svg PUBLIC "-//W3C//DTD SVG 1.1//EN"
 "http://www.w3.org/Graphics/SVG/1.1/DTD/svg11.dtd">
<!-- Generated by graphviz version 2.38.0 (20140413.2041)
 -->
<!-- Title: %3 Pages: 1 -->
<svg width="1139pt" height="476pt"
 viewBox="0.00 0.00 1139.14 476.00" xmlns="http://www.w3.org/2000/svg" xmlns:xlink="http://www.w3.org/1999/xlink">
<g id="graph0" class="graph" transform="scale(1 1) rotate(0) translate(4 472)">
<title>%3</title>
<polygon fill="white" stroke="none" points="-4,4 -4,-472 1135.14,-472 1135.14,4 -4,4"/>
<!-- [root] azurerm_public_ip.myip -->
<g id="node1" class="node"><title>[root] azurerm_public_ip.myip</title>
<polygon fill="none" stroke="black" points="728.043,-324 539.043,-324 539.043,-288 728.043,-288 728.043,-324"/>
<text text-anchor="middle" x="633.543" y="-302.3" font-family="Times,serif" font-size="14.00">azurerm_public_ip.myip</text>
</g>
<!-- [root] azurerm_resource_group.thegroup -->
<g id="node2" class="node"><title>[root] azurerm_resource_group.thegroup</title>
<polygon fill="none" stroke="black" points="759.543,-180 493.543,-180 493.543,-144 759.543,-144 759.543,-180"/>
<text text-anchor="middle" x="626.543" y="-158.3" font-family="Times,serif" font-size="14.00">azurerm_resource_group.thegroup</text>
</g>
<!-- [root] azurerm_public_ip.myip&#45;&gt;[root] azurerm_resource_group.thegroup -->
<g id="edge1" class="edge"><title>[root] azurerm_public_ip.myip&#45;&gt;[root] azurerm_resource_group.thegroup</title>
<path fill="none" stroke="black" d="M632.698,-287.871C631.505,-263.67 629.314,-219.211 627.893,-190.393"/>
<polygon fill="black" stroke="black" points="631.378,-190.005 627.39,-180.189 624.387,-190.349 631.378,-190.005"/>
</g>
<!-- [root] provider.azurerm -->
<g id="node5" class="node"><title>[root] provider.azurerm</title>
<polygon fill="none" stroke="black" points="386.543,-108 257.678,-90 386.543,-72 515.407,-90 386.543,-108"/>
<text text-anchor="middle" x="386.543" y="-86.3" font-family="Times,serif" font-size="14.00">provider.azurerm</text>
</g>
<!-- [root] azurerm_resource_group.thegroup&#45;&gt;[root] provider.azurerm -->
<g id="edge2" class="edge"><title>[root] azurerm_resource_group.thegroup&#45;&gt;[root] provider.azurerm</title>
<path fill="none" stroke="black" d="M568.139,-143.966C527.636,-132.152 474.287,-116.592 435.907,-105.398"/>
<polygon fill="black" stroke="black" points="436.576,-101.947 425.996,-102.507 434.616,-108.667 436.576,-101.947"/>
</g>
<!-- [root] var.location -->
<g id="node6" class="node"><title>[root] var.location</title>
<ellipse fill="none" stroke="black" cx="626.543" cy="-90" rx="93.6835" ry="18"/>
<text text-anchor="middle" x="626.543" y="-86.3" font-family="Times,serif" font-size="14.00">[root] var.location</text>
</g>
<!-- [root] azurerm_resource_group.thegroup&#45;&gt;[root] var.location -->
<g id="edge3" class="edge"><title>[root] azurerm_resource_group.thegroup&#45;&gt;[root] var.location</title>
<path fill="none" stroke="black" d="M626.543,-143.697C626.543,-135.983 626.543,-126.712 626.543,-118.112"/>
<polygon fill="black" stroke="black" points="630.043,-118.104 626.543,-108.104 623.043,-118.104 630.043,-118.104"/>
</g>
<!-- [root] var.rg -->
<g id="node7" class="node"><title>[root] var.rg</title>
<ellipse fill="none" stroke="black" cx="805.543" cy="-90" rx="66.8882" ry="18"/>
<text text-anchor="middle" x="805.543" y="-86.3" font-family="Times,serif" font-size="14.00">[root] var.rg</text>
</g>
<!-- [root] azurerm_resource_group.thegroup&#45;&gt;[root] var.rg -->
<g id="edge4" class="edge"><title>[root] azurerm_resource_group.thegroup&#45;&gt;[root] var.rg</title>
<path fill="none" stroke="black" d="M670.331,-143.876C697.458,-133.268 732.245,-119.664 759.74,-108.912"/>
<polygon fill="black" stroke="black" points="761.098,-112.139 769.136,-105.237 758.549,-105.62 761.098,-112.139"/>
</g>
<!-- [root] azurerm_subnet.mysub -->
<g id="node3" class="node"><title>[root] azurerm_subnet.mysub</title>
<polygon fill="none" stroke="black" points="521.043,-324 336.043,-324 336.043,-288 521.043,-288 521.043,-324"/>
<text text-anchor="middle" x="428.543" y="-302.3" font-family="Times,serif" font-size="14.00">azurerm_subnet.mysub</text>
</g>
<!-- [root] azurerm_virtual_network.mynet -->
<g id="node4" class="node"><title>[root] azurerm_virtual_network.mynet</title>
<polygon fill="none" stroke="black" points="575.543,-252 327.543,-252 327.543,-216 575.543,-216 575.543,-252"/>
<text text-anchor="middle" x="451.543" y="-230.3" font-family="Times,serif" font-size="14.00">azurerm_virtual_network.mynet</text>
</g>
<!-- [root] azurerm_subnet.mysub&#45;&gt;[root] azurerm_virtual_network.mynet -->
<g id="edge5" class="edge"><title>[root] azurerm_subnet.mysub&#45;&gt;[root] azurerm_virtual_network.mynet</title>
<path fill="none" stroke="black" d="M434.228,-287.697C436.79,-279.898 439.876,-270.509 442.727,-261.829"/>
<polygon fill="black" stroke="black" points="446.126,-262.697 445.923,-252.104 439.476,-260.512 446.126,-262.697"/>
</g>
<!-- [root] azurerm_virtual_network.mynet&#45;&gt;[root] azurerm_resource_group.thegroup -->
<g id="edge6" class="edge"><title>[root] azurerm_virtual_network.mynet&#45;&gt;[root] azurerm_resource_group.thegroup</title>
<path fill="none" stroke="black" d="M494.352,-215.876C518.489,-206.222 548.826,-194.087 574.349,-183.878"/>
<polygon fill="black" stroke="black" points="575.887,-187.032 583.872,-180.068 573.287,-180.533 575.887,-187.032"/>
</g>
<!-- [root] var.appid -->
<g id="node13" class="node"><title>[root] var.appid</title>
<ellipse fill="none" stroke="black" cx="82.5427" cy="-18" rx="82.5854" ry="18"/>
<text text-anchor="middle" x="82.5427" y="-14.3" font-family="Times,serif" font-size="14.00">[root] var.appid</text>
</g>
<!-- [root] provider.azurerm&#45;&gt;[root] var.appid -->
<g id="edge15" class="edge"><title>[root] provider.azurerm&#45;&gt;[root] var.appid</title>
<path fill="none" stroke="black" d="M340.372,-78.3685C288.792,-66.4916 204.935,-47.1824 146.928,-33.8256"/>
<polygon fill="black" stroke="black" points="147.662,-30.4031 137.132,-31.5698 146.091,-37.2246 147.662,-30.4031"/>
</g>
<!-- [root] var.password -->
<g id="node14" class="node"><title>[root] var.password</title>
<ellipse fill="none" stroke="black" cx="283.543" cy="-18" rx="100.983" ry="18"/>
<text text-anchor="middle" x="283.543" y="-14.3" font-family="Times,serif" font-size="14.00">[root] var.password</text>
</g>
<!-- [root] provider.azurerm&#45;&gt;[root] var.password -->
<g id="edge16" class="edge"><title>[root] provider.azurerm&#45;&gt;[root] var.password</title>
<path fill="none" stroke="black" d="M365.699,-74.8345C351.613,-65.2615 332.717,-52.4192 316.598,-41.4646"/>
<polygon fill="black" stroke="black" points="318.215,-38.3318 307.977,-35.6057 314.28,-44.1214 318.215,-38.3318"/>
</g>
<!-- [root] var.sub_id -->
<g id="node15" class="node"><title>[root] var.sub_id</title>
<ellipse fill="none" stroke="black" cx="489.543" cy="-18" rx="87.1846" ry="18"/>
<text text-anchor="middle" x="489.543" y="-14.3" font-family="Times,serif" font-size="14.00">[root] var.sub_id</text>
</g>
<!-- [root] provider.azurerm&#45;&gt;[root] var.sub_id -->
<g id="edge17" class="edge"><title>[root] provider.azurerm&#45;&gt;[root] var.sub_id</title>
<path fill="none" stroke="black" d="M407.386,-74.8345C421.571,-65.1941 440.635,-52.2382 456.828,-41.2334"/>
<polygon fill="black" stroke="black" points="459.176,-43.8696 465.479,-35.3539 455.241,-38.0801 459.176,-43.8696"/>
</g>
<!-- [root] var.tenant -->
<g id="node16" class="node"><title>[root] var.tenant</title>
<ellipse fill="none" stroke="black" cx="681.543" cy="-18" rx="87.1846" ry="18"/>
<text text-anchor="middle" x="681.543" y="-14.3" font-family="Times,serif" font-size="14.00">[root] var.tenant</text>
</g>
<!-- [root] provider.azurerm&#45;&gt;[root] var.tenant -->
<g id="edge18" class="edge"><title>[root] provider.azurerm&#45;&gt;[root] var.tenant</title>
<path fill="none" stroke="black" d="M431.668,-78.2923C481.077,-66.5682 560.727,-47.6681 616.794,-34.3641"/>
<polygon fill="black" stroke="black" points="617.705,-37.7452 626.626,-32.031 616.089,-30.9344 617.705,-37.7452"/>
</g>
<!-- [root] meta.count&#45;boundary (count boundary fixup) -->
<g id="node8" class="node"><title>[root] meta.count&#45;boundary (count boundary fixup)</title>
<ellipse fill="none" stroke="black" cx="847.543" cy="-378" rx="247.756" ry="18"/>
<text text-anchor="middle" x="847.543" y="-374.3" font-family="Times,serif" font-size="14.00">[root] meta.count&#45;boundary (count boundary fixup)</text>
</g>
<!-- [root] meta.count&#45;boundary (count boundary fixup)&#45;&gt;[root] azurerm_public_ip.myip -->
<g id="edge7" class="edge"><title>[root] meta.count&#45;boundary (count boundary fixup)&#45;&gt;[root] azurerm_public_ip.myip</title>
<path fill="none" stroke="black" d="M796.556,-360.322C766.194,-350.391 727.453,-337.718 695.356,-327.219"/>
<polygon fill="black" stroke="black" points="696.218,-323.819 685.625,-324.036 694.041,-330.472 696.218,-323.819"/>
</g>
<!-- [root] meta.count&#45;boundary (count boundary fixup)&#45;&gt;[root] azurerm_subnet.mysub -->
<g id="edge8" class="edge"><title>[root] meta.count&#45;boundary (count boundary fixup)&#45;&gt;[root] azurerm_subnet.mysub</title>
<path fill="none" stroke="black" d="M753.265,-361.328C692.58,-351.23 611.709,-337.756 531.558,-324.336"/>
<polygon fill="black" stroke="black" points="531.72,-320.815 521.28,-322.615 530.564,-327.719 531.72,-320.815"/>
</g>
<!-- [root] output.bubba -->
<g id="node9" class="node"><title>[root] output.bubba</title>
<ellipse fill="none" stroke="black" cx="756.543" cy="-234" rx="102.082" ry="18"/>
<text text-anchor="middle" x="756.543" y="-230.3" font-family="Times,serif" font-size="14.00">[root] output.bubba</text>
</g>
<!-- [root] meta.count&#45;boundary (count boundary fixup)&#45;&gt;[root] output.bubba -->
<g id="edge9" class="edge"><title>[root] meta.count&#45;boundary (count boundary fixup)&#45;&gt;[root] output.bubba</title>
<path fill="none" stroke="black" d="M814.888,-360.124C800.737,-351.214 785.224,-338.996 775.543,-324 763.651,-305.581 759.069,-280.98 757.365,-262.311"/>
<polygon fill="black" stroke="black" points="760.841,-261.832 756.662,-252.096 753.857,-262.313 760.841,-261.832"/>
</g>
<!-- [root] output.more -->
<g id="node10" class="node"><title>[root] output.more</title>
<ellipse fill="none" stroke="black" cx="881.543" cy="-306" rx="96.6831" ry="18"/>
<text text-anchor="middle" x="881.543" y="-302.3" font-family="Times,serif" font-size="14.00">[root] output.more</text>
</g>
<!-- [root] meta.count&#45;boundary (count boundary fixup)&#45;&gt;[root] output.more -->
<g id="edge10" class="edge"><title>[root] meta.count&#45;boundary (count boundary fixup)&#45;&gt;[root] output.more</title>
<path fill="none" stroke="black" d="M855.947,-359.697C859.817,-351.728 864.494,-342.1 868.786,-333.264"/>
<polygon fill="black" stroke="black" points="872.014,-334.629 873.235,-324.104 865.717,-331.57 872.014,-334.629"/>
</g>
<!-- [root] var.yo -->
<g id="node11" class="node"><title>[root] var.yo</title>
<ellipse fill="none" stroke="black" cx="1063.54" cy="-306" rx="67.6881" ry="18"/>
<text text-anchor="middle" x="1063.54" y="-302.3" font-family="Times,serif" font-size="14.00">[root] var.yo</text>
</g>
<!-- [root] meta.count&#45;boundary (count boundary fixup)&#45;&gt;[root] var.yo -->
<g id="edge11" class="edge"><title>[root] meta.count&#45;boundary (count boundary fixup)&#45;&gt;[root] var.yo</title>
<path fill="none" stroke="black" d="M899.006,-360.322C933.304,-349.207 978.197,-334.658 1012.42,-323.566"/>
<polygon fill="black" stroke="black" points="1013.79,-326.801 1022.23,-320.389 1011.64,-320.142 1013.79,-326.801"/>
</g>
<!-- [root] output.bubba&#45;&gt;[root] azurerm_resource_group.thegroup -->
<g id="edge12" class="edge"><title>[root] output.bubba&#45;&gt;[root] azurerm_resource_group.thegroup</title>
<path fill="none" stroke="black" d="M726.391,-216.765C708.779,-207.281 686.32,-195.188 667.164,-184.873"/>
<polygon fill="black" stroke="black" points="668.808,-181.783 658.344,-180.124 665.49,-187.947 668.808,-181.783"/>
</g>
<!-- [root] provider.azurerm (close) -->
<g id="node12" class="node"><title>[root] provider.azurerm (close)</title>
<ellipse fill="none" stroke="black" cx="428.543" cy="-378" rx="153.273" ry="18"/>
<text text-anchor="middle" x="428.543" y="-374.3" font-family="Times,serif" font-size="14.00">[root] provider.azurerm (close)</text>
</g>
<!-- [root] provider.azurerm (close)&#45;&gt;[root] azurerm_public_ip.myip -->
<g id="edge13" class="edge"><title>[root] provider.azurerm (close)&#45;&gt;[root] azurerm_public_ip.myip</title>
<path fill="none" stroke="black" d="M475.831,-360.853C505.086,-350.863 542.893,-337.954 574.156,-327.278"/>
<polygon fill="black" stroke="black" points="575.3,-330.586 583.632,-324.043 573.038,-323.962 575.3,-330.586"/>
</g>
<!-- [root] provider.azurerm (close)&#45;&gt;[root] azurerm_subnet.mysub -->
<g id="edge14" class="edge"><title>[root] provider.azurerm (close)&#45;&gt;[root] azurerm_subnet.mysub</title>
<path fill="none" stroke="black" d="M428.543,-359.697C428.543,-351.983 428.543,-342.712 428.543,-334.112"/>
<polygon fill="black" stroke="black" points="432.043,-334.104 428.543,-324.104 425.043,-334.104 432.043,-334.104"/>
</g>
<!-- [root] root -->
<g id="node17" class="node"><title>[root] root</title>
<ellipse fill="none" stroke="black" cx="637.543" cy="-450" rx="58.4896" ry="18"/>
<text text-anchor="middle" x="637.543" y="-446.3" font-family="Times,serif" font-size="14.00">[root] root</text>
</g>
<!-- [root] root&#45;&gt;[root] meta.count&#45;boundary (count boundary fixup) -->
<g id="edge19" class="edge"><title>[root] root&#45;&gt;[root] meta.count&#45;boundary (count boundary fixup)</title>
<path fill="none" stroke="black" d="M676.06,-436.161C707.231,-425.771 751.682,-410.954 787.516,-399.009"/>
<polygon fill="black" stroke="black" points="788.996,-402.205 797.376,-395.722 786.782,-395.564 788.996,-402.205"/>
</g>
<!-- [root] root&#45;&gt;[root] provider.azurerm (close) -->
<g id="edge20" class="edge"><title>[root] root&#45;&gt;[root] provider.azurerm (close)</title>
<path fill="none" stroke="black" d="M599.209,-436.161C567.755,-425.626 522.716,-410.541 486.803,-398.513"/>
<polygon fill="black" stroke="black" points="487.528,-395.065 476.935,-395.208 485.305,-401.703 487.528,-395.065"/>
</g>
</g>
</svg>
